<mxfile host="app.diagrams.net" modified="2023-10-15T20:00:25.037Z" agent="Mozilla/5.0 (Windows NT 10.0; Win64; x64) AppleWebKit/537.36 (KHTML, like Gecko) Chrome/118.0.0.0 Safari/537.36" etag="JwEaNHxbsh4e1bli5EQm" version="22.0.4" type="device">
  <diagram id="wAxUxL8m-4CSuetN4ODD" name="Page-1">
    <mxGraphModel dx="2062" dy="666" grid="1" gridSize="10" guides="1" tooltips="1" connect="1" arrows="1" fold="1" page="1" pageScale="1" pageWidth="827" pageHeight="1169" math="0" shadow="0">
      <root>
        <mxCell id="0" />
        <mxCell id="1" parent="0" />
        <mxCell id="3YsNiaVbnSvqqKacSZGo-29" value="Miejscowość" style="rounded=0;whiteSpace=wrap;html=1;" parent="1" vertex="1">
          <mxGeometry x="380" y="400" width="120" height="60" as="geometry" />
        </mxCell>
        <mxCell id="3YsNiaVbnSvqqKacSZGo-30" value="Prognoza pogody" style="rounded=0;whiteSpace=wrap;html=1;" parent="1" vertex="1">
          <mxGeometry x="-90" y="400" width="120" height="60" as="geometry" />
        </mxCell>
        <mxCell id="3YsNiaVbnSvqqKacSZGo-31" value="Data&lt;span style=&quot;color: rgba(0, 0, 0, 0); font-family: monospace; font-size: 0px; text-align: start;&quot;&gt;%3CmxGraphModel%3E%3Croot%3E%3CmxCell%20id%3D%220%22%2F%3E%3CmxCell%20id%3D%221%22%20parent%3D%220%22%2F%3E%3CmxCell%20id%3D%222%22%20value%3D%22EntryID%22%20style%3D%22ellipse%3BwhiteSpace%3Dwrap%3Bhtml%3D1%3B%22%20vertex%3D%221%22%20parent%3D%221%22%3E%3CmxGeometry%20x%3D%2260%22%20y%3D%22250%22%20width%3D%22100%22%20height%3D%2260%22%20as%3D%22geometry%22%2F%3E%3C%2FmxCell%3E%3C%2Froot%3E%3C%2FmxGraphModel%3E&lt;/span&gt;" style="ellipse;whiteSpace=wrap;html=1;" parent="1" vertex="1">
          <mxGeometry x="-110" y="280" width="100" height="60" as="geometry" />
        </mxCell>
        <mxCell id="3YsNiaVbnSvqqKacSZGo-33" value="Temperatura" style="ellipse;whiteSpace=wrap;html=1;" parent="1" vertex="1">
          <mxGeometry x="-220" y="260" width="100" height="60" as="geometry" />
        </mxCell>
        <mxCell id="3YsNiaVbnSvqqKacSZGo-34" value="Ciśnienie" style="ellipse;whiteSpace=wrap;html=1;" parent="1" vertex="1">
          <mxGeometry x="-140" y="500" width="100" height="60" as="geometry" />
        </mxCell>
        <mxCell id="3YsNiaVbnSvqqKacSZGo-35" value="Opady" style="ellipse;whiteSpace=wrap;html=1;" parent="1" vertex="1">
          <mxGeometry x="-250" y="420" width="100" height="60" as="geometry" />
        </mxCell>
        <mxCell id="3YsNiaVbnSvqqKacSZGo-36" value="Wiatr" style="ellipse;whiteSpace=wrap;html=1;" parent="1" vertex="1">
          <mxGeometry x="-250" y="340" width="100" height="60" as="geometry" />
        </mxCell>
        <mxCell id="3YsNiaVbnSvqqKacSZGo-38" value="Wilgotność" style="ellipse;whiteSpace=wrap;html=1;" parent="1" vertex="1">
          <mxGeometry x="-10" y="500" width="100" height="60" as="geometry" />
        </mxCell>
        <mxCell id="3YsNiaVbnSvqqKacSZGo-41" value="Nazwa miejscowości" style="ellipse;whiteSpace=wrap;html=1;" parent="1" vertex="1">
          <mxGeometry x="550" y="420" width="100" height="60" as="geometry" />
        </mxCell>
        <mxCell id="3YsNiaVbnSvqqKacSZGo-44" value="" style="endArrow=none;html=1;rounded=0;entryX=0;entryY=0.5;entryDx=0;entryDy=0;exitX=1;exitY=0.5;exitDx=0;exitDy=0;" parent="1" source="3YsNiaVbnSvqqKacSZGo-29" target="3YsNiaVbnSvqqKacSZGo-41" edge="1">
          <mxGeometry width="50" height="50" relative="1" as="geometry">
            <mxPoint x="260" y="370" as="sourcePoint" />
            <mxPoint x="310" y="320" as="targetPoint" />
          </mxGeometry>
        </mxCell>
        <mxCell id="3YsNiaVbnSvqqKacSZGo-48" value="" style="endArrow=none;html=1;rounded=0;entryX=0.5;entryY=1;entryDx=0;entryDy=0;exitX=0.5;exitY=0;exitDx=0;exitDy=0;" parent="1" source="3YsNiaVbnSvqqKacSZGo-30" target="3YsNiaVbnSvqqKacSZGo-31" edge="1">
          <mxGeometry width="50" height="50" relative="1" as="geometry">
            <mxPoint x="-55" y="410" as="sourcePoint" />
            <mxPoint x="-5" y="340" as="targetPoint" />
          </mxGeometry>
        </mxCell>
        <mxCell id="3YsNiaVbnSvqqKacSZGo-49" value="" style="endArrow=none;html=1;rounded=0;exitX=0.005;exitY=0.4;exitDx=0;exitDy=0;entryX=0.986;entryY=0.667;entryDx=0;entryDy=0;entryPerimeter=0;exitPerimeter=0;" parent="1" source="3YsNiaVbnSvqqKacSZGo-30" target="3YsNiaVbnSvqqKacSZGo-36" edge="1">
          <mxGeometry width="50" height="50" relative="1" as="geometry">
            <mxPoint x="-20" y="410" as="sourcePoint" />
            <mxPoint x="-140" y="400" as="targetPoint" />
          </mxGeometry>
        </mxCell>
        <mxCell id="3YsNiaVbnSvqqKacSZGo-50" value="" style="endArrow=none;html=1;rounded=0;exitX=0.5;exitY=0;exitDx=0;exitDy=0;" parent="1" target="3YsNiaVbnSvqqKacSZGo-33" edge="1">
          <mxGeometry width="50" height="50" relative="1" as="geometry">
            <mxPoint x="-90" y="400" as="sourcePoint" />
            <mxPoint x="-140" y="370" as="targetPoint" />
          </mxGeometry>
        </mxCell>
        <mxCell id="3YsNiaVbnSvqqKacSZGo-51" value="" style="endArrow=none;html=1;rounded=0;entryX=0;entryY=0.75;entryDx=0;entryDy=0;exitX=1;exitY=0.5;exitDx=0;exitDy=0;" parent="1" source="3YsNiaVbnSvqqKacSZGo-35" target="3YsNiaVbnSvqqKacSZGo-30" edge="1">
          <mxGeometry width="50" height="50" relative="1" as="geometry">
            <mxPoint x="-150" y="480" as="sourcePoint" />
            <mxPoint x="-100" y="430" as="targetPoint" />
          </mxGeometry>
        </mxCell>
        <mxCell id="3YsNiaVbnSvqqKacSZGo-52" value="" style="endArrow=none;html=1;rounded=0;entryX=0.25;entryY=1;entryDx=0;entryDy=0;exitX=0.5;exitY=0;exitDx=0;exitDy=0;" parent="1" source="3YsNiaVbnSvqqKacSZGo-34" target="3YsNiaVbnSvqqKacSZGo-30" edge="1">
          <mxGeometry width="50" height="50" relative="1" as="geometry">
            <mxPoint x="-150" y="510" as="sourcePoint" />
            <mxPoint x="-100" y="460" as="targetPoint" />
          </mxGeometry>
        </mxCell>
        <mxCell id="3YsNiaVbnSvqqKacSZGo-53" value="" style="endArrow=none;html=1;rounded=0;exitX=0.75;exitY=1;exitDx=0;exitDy=0;entryX=0.314;entryY=0.053;entryDx=0;entryDy=0;entryPerimeter=0;" parent="1" source="3YsNiaVbnSvqqKacSZGo-30" target="3YsNiaVbnSvqqKacSZGo-38" edge="1">
          <mxGeometry width="50" height="50" relative="1" as="geometry">
            <mxPoint y="430" as="sourcePoint" />
            <mxPoint x="20" y="480" as="targetPoint" />
          </mxGeometry>
        </mxCell>
        <mxCell id="k65Isa8-VZfwUmexK9yl-1" value="Długość geograficzna" style="ellipse;whiteSpace=wrap;html=1;" vertex="1" parent="1">
          <mxGeometry x="360" y="260" width="100" height="60" as="geometry" />
        </mxCell>
        <mxCell id="k65Isa8-VZfwUmexK9yl-2" value="Szerokość geograficzna" style="ellipse;whiteSpace=wrap;html=1;" vertex="1" parent="1">
          <mxGeometry x="520" y="280" width="100" height="60" as="geometry" />
        </mxCell>
        <mxCell id="k65Isa8-VZfwUmexK9yl-3" value="" style="endArrow=none;html=1;rounded=0;entryX=0;entryY=1;entryDx=0;entryDy=0;exitX=0.75;exitY=0;exitDx=0;exitDy=0;" edge="1" parent="1" source="3YsNiaVbnSvqqKacSZGo-29" target="k65Isa8-VZfwUmexK9yl-2">
          <mxGeometry width="50" height="50" relative="1" as="geometry">
            <mxPoint x="510" y="440" as="sourcePoint" />
            <mxPoint x="560" y="460" as="targetPoint" />
          </mxGeometry>
        </mxCell>
        <mxCell id="k65Isa8-VZfwUmexK9yl-4" value="" style="endArrow=none;html=1;rounded=0;entryX=0.5;entryY=0;entryDx=0;entryDy=0;exitX=0.627;exitY=1.021;exitDx=0;exitDy=0;exitPerimeter=0;" edge="1" parent="1" source="k65Isa8-VZfwUmexK9yl-1" target="3YsNiaVbnSvqqKacSZGo-29">
          <mxGeometry width="50" height="50" relative="1" as="geometry">
            <mxPoint x="520" y="450" as="sourcePoint" />
            <mxPoint x="570" y="470" as="targetPoint" />
          </mxGeometry>
        </mxCell>
        <mxCell id="k65Isa8-VZfwUmexK9yl-5" value="" style="edgeStyle=entityRelationEdgeStyle;fontSize=12;html=1;endArrow=ERoneToMany;rounded=0;entryX=1;entryY=0.5;entryDx=0;entryDy=0;exitX=0;exitY=0.5;exitDx=0;exitDy=0;" edge="1" parent="1" source="k65Isa8-VZfwUmexK9yl-6" target="3YsNiaVbnSvqqKacSZGo-30">
          <mxGeometry width="100" height="100" relative="1" as="geometry">
            <mxPoint x="40" y="380" as="sourcePoint" />
            <mxPoint x="180" y="380" as="targetPoint" />
            <Array as="points">
              <mxPoint x="-20" y="370" />
            </Array>
          </mxGeometry>
        </mxCell>
        <mxCell id="k65Isa8-VZfwUmexK9yl-6" value="Zawiera" style="rhombus;whiteSpace=wrap;html=1;" vertex="1" parent="1">
          <mxGeometry x="160" y="390" width="80" height="80" as="geometry" />
        </mxCell>
        <mxCell id="k65Isa8-VZfwUmexK9yl-7" value="" style="endArrow=none;html=1;rounded=0;entryX=1;entryY=0.5;entryDx=0;entryDy=0;exitX=0;exitY=0.5;exitDx=0;exitDy=0;" edge="1" parent="1" source="3YsNiaVbnSvqqKacSZGo-29">
          <mxGeometry width="50" height="50" relative="1" as="geometry">
            <mxPoint x="370" y="429.40999999999997" as="sourcePoint" />
            <mxPoint x="240" y="429.40999999999997" as="targetPoint" />
          </mxGeometry>
        </mxCell>
      </root>
    </mxGraphModel>
  </diagram>
</mxfile>
